<?xml version="1.0" encoding="utf-8"?>
<!-- Generator: Adobe Illustrator 21.0.0, SVG Export Plug-In . SVG Version: 6.00 Build 0)  -->
<svg version="1.1" id="Camada_1" xmlns="http://www.w3.org/2000/svg" xmlns:xlink="http://www.w3.org/1999/xlink" x="0px" y="0px"
	 viewBox="0 0 512 512" style="enable-background:new 0 0 512 512;" xml:space="preserve">
<style type="text/css">
	.st0{fill:#007BFF;}
</style>
<g id="Page-1">
	<g id="_x30_37---Sheet">
		<path id="Shape" class="st0" d="M510.4,269.3L485,145c-10.2-47.1-51.9-80.8-100.1-81H135.6c-48.2,0.2-89.8,33.9-100.1,81
			l-33,154.2c0,0.2,0,0.4,0,0.6c-7.6,37,2.1,75.4,26.4,104.2s60.4,45.1,98.1,44h338c13.2,0,25.9-5.6,34.8-15.4s13.2-22.9,11.9-36.1
			c-2.3-19.8-16.7-36.1-36.1-40.8c27.6-19.3,41.2-53.1,34.7-86.1C510.4,269.5,510.4,269.4,510.4,269.3L510.4,269.3z M52.2,148.5
			c8.5-39.3,43.2-67.3,83.4-67.5h249.3c40.2,0.1,74.8,28.2,83.4,67.4l15.1,73.8c-15.6-14-35.8-21.8-56.7-21.8H123.7
			c-33.9-0.1-66.3,13.8-89.6,38.5c-0.6,0.6-1.1,1.3-1.7,1.9L52.2,148.5z M426.7,354.1H123.7c-8.4,0-16.5-3.6-22.1-9.8
			c-5.7-6.3-8.4-14.6-7.6-23c2.1-15.6,15.7-27.2,31.4-26.9h301.2c4.7,0,8.5-3.8,8.5-8.5s-3.8-8.5-8.5-8.5H125.4
			c-24.5-0.3-45.4,17.9-48.4,42.3c-1.3,13.2,3,26.3,11.9,36.1c8.9,9.8,21.5,15.4,34.8,15.4h339.7c15.8-0.3,29.3,11.3,31.4,26.9
			c0.9,8.4-1.9,16.8-7.6,23c-5.7,6.2-13.7,9.8-22.1,9.8h-338c-57.8,1-106.1-43.6-109.9-101.3c-1.4-29.2,9.1-57.7,29.3-78.8
			s48.1-33.2,77.3-33.2h302.9c37.7,0,68.3,30.6,68.3,68.3S464.4,354.1,426.7,354.1L426.7,354.1z"/>
		<path id="Shape_1_" class="st0" d="M75.5,162.2c0.6,0.1,1.2,0.2,1.8,0.2c4,0,7.5-2.8,8.3-6.8c5.1-23.5,25.9-40.4,50-40.4h69.2
			c4.7,0,8.5-3.8,8.5-8.5s-3.8-8.5-8.5-8.5h-69.2c-32.1,0.1-59.9,22.6-66.7,54c-0.5,2.2,0,4.5,1.2,6.4
			C71.3,160.4,73.3,161.7,75.5,162.2z"/>
		<circle id="Oval" class="st0" cx="238.9" cy="106.7" r="8.5"/>
	</g>
</g>
</svg>
