<?xml version="1.0" encoding="utf-8"?>
<!-- Generator: Adobe Illustrator 21.0.0, SVG Export Plug-In . SVG Version: 6.00 Build 0)  -->
<svg version="1.1" id="Camada_1" xmlns="http://www.w3.org/2000/svg" xmlns:xlink="http://www.w3.org/1999/xlink" x="0px" y="0px"
	 viewBox="0 0 511 511" style="enable-background:new 0 0 511 511;" xml:space="preserve">
<style type="text/css">
	.st0{fill:#007BFF;}
</style>
<g>
	<path class="st0" d="M49.9,286.5c-5.5,0-10,4.5-10,10s4.5,10,10,10s10-4.5,10-10S55.4,286.5,49.9,286.5z"/>
	<path class="st0" d="M458.7,321.1l-94.1,32.3c0.4-2.3,0.7-4.7,0.7-7.1c0-22-17.9-39.9-39.9-39.9h-64.6c-1.7,0-3.4-0.4-4.9-1.3
		l-52.7-29.7c-10.4-5.9-22.3-9-34.3-9H98.1c-4.1-11.6-15.2-20-28.2-20H10c-5.5,0-10,4.5-10,10v179.6c0,5.5,4.5,10,10,10h59.9
		c12.7,0,23.6-8,27.9-19.2c11.3,1.4,24.4,4.7,32.6,9.7l52.2,31.3c19.8,11.9,42.4,18.1,65.5,18.1c18.3,0,36-3.8,52.6-11.4l186.3-82
		c20.6-8.4,30.8-33.1,19-54.9C497.3,321.7,477,314.6,458.7,321.1z M79.8,416.3c0,5.5-4.5,9.9-10,9.9H20V266.6h49.9
		c5.5,0,10,4.5,10,10V416.3z M479.4,374.3c-0.1,0-0.2,0.1-0.3,0.1c0,0-186.6,82.1-186.6,82.2c-14.1,6.4-29,9.6-44.4,9.6
		c-19.4,0-38.5-5.3-55.2-15.3l-52.2-31.3c-11.2-6.7-27.2-10.8-40.9-12.4V286.5h69c8.6,0,17,2.2,24.5,6.4l52.7,29.7
		c4.5,2.5,9.6,3.9,14.7,3.9h64.6c11,0,20,9,20,20c0,11-9,20-20,20H223.9c-5.5,0-10,4.5-10,10c0,5.5,4.5,10,10,10h101.5
		c6.5,0,13-1.6,18.7-4.7c0,0,121.3-41.7,121.4-41.7c8.9-3.2,19.1,0,23,7.3C494.4,358.3,489.5,370.2,479.4,374.3z"/>
	<path class="st0" d="M290.7,267c1.9,1.6,4.2,2.4,6.5,2.4s4.7-0.8,6.5-2.4c81.4-70.6,131.8-106.3,131.8-161.8
		c0-43.9-31.1-80.3-74.8-80.3c-28.7,0-50.6,16.5-64.8,41.3C281.9,41.5,260,25,231.2,25c-33.4,0-61.4,21.7-71.2,55.2
		c-1.6,5.3,1.5,10.8,6.8,12.4c5.3,1.6,10.8-1.5,12.4-6.8c7.3-24.8,27.7-40.8,52.1-40.8c28.5,0,48.4,25.3,55.2,48.8
		c1.2,4.3,5.1,7.3,9.6,7.3c4.5,0,8.4-3,9.6-7.3c0.1-0.5,14-48.8,55.2-48.8c31.2,0,54.8,25.9,54.8,60.3c0,44.4-43.4,76.4-118.4,141.1
		c-45.7-39.2-82-66.9-102.6-93.9c-3.3-4.4-9.6-5.2-14-1.9c-4.4,3.3-5.2,9.6-1.9,14C202,195,241.2,224.2,290.7,267z"/>
	<path class="st0" d="M168.7,112.9c-5.5,0-10,4.5-10,10c0,5.5,4.5,10,10,10c5.5,0,10-4.5,10-10C178.7,117.3,174.2,112.9,168.7,112.9
		z"/>
</g>
</svg>
