<?xml version="1.0" encoding="utf-8"?>
<!-- Generator: Adobe Illustrator 21.0.0, SVG Export Plug-In . SVG Version: 6.00 Build 0)  -->
<svg version="1.1" id="Capa_1" xmlns="http://www.w3.org/2000/svg" xmlns:xlink="http://www.w3.org/1999/xlink" x="0px" y="0px"
	 viewBox="0 0 512 512" style="enable-background:new 0 0 512 512;" xml:space="preserve">
<style type="text/css">
	.st0{fill:#007BFF;}
</style>
<g>
	<g>
		<path class="st0" d="M511.4,373.5c-1.5-7.9-4.6-25.1-12.7-30.7c0.8-4.4,0.8-9.1-0.1-14c-3.4-19-9.6-36.7-15.5-55
			c-12-37.5-29.9-70.6-50.6-103.8c-10.5-16.8-21.2-32.1-34.9-46.7c-13.3-14.1-27.6-26.3-42.6-38.4c2.4-4.6,4.3-9.6,5.5-14.9
			c3.4-15.2-2.5-31.8-16.9-38.9c-8.4-4.1-18.9-4.1-28-5.1c-12-1.3-24.2-0.6-36.3-0.3c-9.3,0.2-18.5,0.1-27.7,1
			c-3.4,0.3-6.9,0.6-10.4,0.9c-9.2,0.6-18.3,1.9-26.8,4.6c-18.5,6.1-28.4,21.2-30.4,40.3c-0.5,4.3-0.1,8.2,0.8,11.7
			c-6.3,4.2-12,10.4-17.3,15.3c-8.3,7.7-16.9,15.1-25.3,22.7c-18,16.2-34.5,34.7-49.4,53.8c-28.2,36.1-52.2,76.7-66.9,120.2
			c-4.6,13.5-10.9,30.1-8.9,44.9c-5.6,11.6-15.7,22.1-16.8,35.2c-1.1,12.4,14.4,21.1,23.2,26.6c10.6,6.6,28.5,16.8,40.1,7.1
			c5.4-4.5,8.2-10.9,10.7-17.3c1.2-3.1,3.8-7.5,4.8-11.6c13.3-5.3,22-21.6,28.3-33.2c7.7-14.2,13.9-28.9,19.4-44
			c-3.5,23.5-7.3,47.6-7.9,71.3c-0.3,12.9,1.1,25.8,7.2,36.1c-2.2,13.1-0.6,25.8,4,38.5c4.4,12.2,12,17.1,24.2,20.7
			c31.6,9.5,65.3,10.6,98,12.3c30,1.5,62.4,7.7,92.1,0.6c12.9-3.1,24.1-10,29.6-22.3c4.9-10.9,8.3-24.7,7.3-36.6
			c0-0.1,0-0.2-0.1-0.3c5.4-7.5,8.8-16.7,12.1-26.3c6.5-19.1,7.6-39.3,7.2-59.4c1.9,5,4.1,9.8,6.4,14.4c4.1,7.9,9.8,15.3,17,20.4
			c2.1,5.2,3.5,11,5.6,15.7c3.5,7.9,8.5,16.8,15.8,21.8c13.9,9.6,33.7,4.7,47.6-2.4C506.3,401.3,514.4,389.4,511.4,373.5z
			 M377.6,118.9c11,11.2,21.8,23,31.1,35.6c5.8,7.7,10.9,16.2,15.9,24.7c-6.5,0.2-13.3,2.2-17.7,4.1c-9.1,3.8-16.6,9.2-25,12.9
			c-1.4-9.4-3.1-18.9-7.2-27.2c-1.4-2.7-6-1.5-5.8,1.6c0.6,9.7,1.4,19.3,2.4,29c-2,0.4-4.1,0.6-6.2,0.7
			c-18.2,0.6-32.7-9.2-48.4-16.9c-9.2-4.5-19.1-6.9-29.1-7.2c-0.5-20.3-2.1-40.5-5.4-60.4c15.9-0.1,32.4-1.2,46.7-7
			c8.6-3.5,15.6-8.9,20.9-15.7C358.5,102.1,368.8,109.9,377.6,118.9z M287.7,182.5c11,0.4,21.7,3.8,31.7,9.4
			c10.8,6.1,23.7,13,36.2,14.2c5.6,0.5,11.1,0.3,16.4-0.6c1,9.3,2.2,18.7,3.5,28c-14.3,1.8-28.7-0.6-42.7-3.8
			c-12.7-2.9-23.6-10.2-36-13.9c-2.9-0.8-6-1.5-9.2-2C287.8,203.4,287.8,192.9,287.7,182.5z M285.1,274.6c8.4,0.1,16.8,0.5,25.1,1.2
			c5.2,0.5,13.1,0.3,16.7,4.5c2.9,3.3,4.4,8.9,6.1,13c6.7,15.8,11.5,32.9,15.4,49.6c2.2,9.2,5.7,18.1,8,27.2
			c1.3,4.9,2.4,10.8,0.8,15.7c-2.1,6.4-8,6.3-14.1,6.8c-17.7,1.5-36.3,0.1-54-0.9c-2.5-0.1-5.1-0.3-7.6-0.5c-0.2-7-0.3-14,0-20.9
			c1.4-30.7,1.6-61.4,3.1-92.1c0.1-1.2,0.1-2.5,0.2-3.7C285,274.6,285.1,274.6,285.1,274.6z M200.9,55c5.7-9.3,16.1-12.7,26.4-14.6
			c17.2-3.1,35.8-3,53.2-3.3c13.7-0.2,27.8-0.2,41.7,0.5c11.1,1.6,22.2,5.3,25.6,16.3c4.4,14.3-5,31.7-16.9,39.3
			c-13.8,8.8-32,9.2-48,9.6c2.7-10.1,3.2-27.3-1.8-35.1c9.3-0.3,18.5-0.9,27.5-2c5.7-0.7,29.2-4.6,25.5-15.1
			c-1.6-4.4-10.4-6.8-14.2-7.8c-8.1-2.1-16.4-2.8-24.7-2.7c-16.2,0.2-32.7,1.1-48.9,2.6c-3.6,0.3-7.2,0.8-10.9,1.4
			c-2.7,0.4-6.3,0.9-9.8,1.8c-0.3,0.1-0.6,0.1-0.8,0.2c-4,0.9-11.4,1.7-13.1,6.4c-1.7,4.7,0.6,8,5.3,10.3c4,2.4,10.1,3.5,15.9,4
			c8.1,1,17.6,1.2,26.6,1c4.1,0.1,8.2,0.1,12.3,0.1c5.5,6.3,5,14.1,4.6,22.4c-0.2,4.2-1.4,8.5-1.3,12.6c-13.4,0.1-26.7-0.4-40-1.8
			c-13.5-1.4-39.5-5.2-40.7-22.6C194,70.7,196.8,61.6,200.9,55z M244.5,61.5c-1.6-0.1-7.4-0.1-13-0.6c-0.3-0.1-0.7-0.1-1-0.2
			c-1.7-0.4-8.7-2-10.9-4.3c0.2-1.4,1.8-2.5,4-3.4c1.3-0.2,2.5-0.4,3-0.5c13.5-2.5,27.3-4,41.1-4.4c14.8-0.5,29.5-2.5,44.2-0.1
			c3.7,0.6,7.3,1.3,10.7,2.6c6.7,2.6,1.8,3.9-2.1,5.7c-8.2,3.8-18.1,3.7-27,4.2C277.3,61.4,260.8,62.6,244.5,61.5z M143.8,134.4
			c8.3-8.1,16.9-15.9,25.3-23.9c6.1-5.8,11.7-13.7,18.3-19.6c4,6.9,11,12,19.9,15.5c18.4,7.2,40.4,8.7,60,9c2.6,0,5.2,0.1,7.8,0.1
			c-0.2,10.2,0.8,20.4,1.4,30.6c0.6,10.1,0.8,20.2,0.9,30.4c-1.1,0.1-2.2,0.3-3.3,0.5c-15.7,2.6-29.7,12.4-45.1,16.6
			c-16.2,4.3-39.2,7.7-54.1-1c-3.2-1.9-6.3-3.9-9.4-5.9c1.3-3.5,2.6-7,3.9-10.5c4.9-12.8,11.8-25,15.9-38.1c0.6-1.9-2.1-3.6-3.5-2
			c-11.1,12.8-17.4,30-23.7,45.7c-5.7-3.7-11.5-7.1-18.3-9.5c-7.7-2.7-17.3-5.7-26.2-5.3C123.2,155.6,133.4,144.6,143.8,134.4z
			 M277.4,183c0,1.9,0,3.8,0,5.8c0,8.1-0.3,16.1-0.6,24.1c-5-0.1-9.9,0.1-14.3,0.8c-13.2,2.1-24.8,8.9-37.4,12.8
			c-22.8,7.1-50.1,8.2-72.6-1.2c1.6-4.9,3.1-9.8,4.7-14.7c1.9-6,4-12,6-18c6.1,4.6,12.5,8.9,20,10.5c13,2.7,28.3-0.1,41.2-2.3
			c15.7-2.7,29.1-11.4,44.1-16C271.6,184.1,274.5,183.4,277.4,183z M96.8,188.4c3.5-4.7,7-9.4,10.7-14c13.2-3.9,32.9,3.5,43.6,9.8
			c1.6,1,3.2,2,4.8,3.1c-4.4,11.1-8.6,22.3-12.5,33.5c-3.7-2.2-7.2-4.7-10.5-7.6c-9.6-8.5-27.1-19.3-41.5-17.4
			C93.2,193.3,95,190.8,96.8,188.4z M61.6,392.4c-3.9,8.3-10.1,11.1-18.9,7.7c-6-2.3-11.9-5.2-17.3-8.6c-4.5-2.8-10.8-6-13.5-10.8
			c-2.7-4.8-0.2-9.8,1.8-14.7c1.9-4.7,4.4-9.4,6.5-14.1c0.3,0.5,0.5,1,0.8,1.5c8.1,14,28.1,26.8,44.7,29.1
			C64.1,386,62.9,389.7,61.6,392.4z M114.9,298.6c-7.3,18.7-15.7,37-25.8,54.4c-5.3,9.2-12.3,18.2-24,16.3
			c-9.7-1.6-21.2-9.2-28.2-15.8c-15.3-14.5-4.9-38.7,0.9-55.7c11.5-34.2,29.1-66.2,49.5-96c12.4-3.3,26,3,36,11
			c5.8,4.6,10.6,10.2,16.9,14.2c0.3,0.2,0.7,0.4,1,0.6c-1.6,4.6-3.1,9.1-4.6,13.7C130.2,260.7,122.3,279.6,114.9,298.6z
			 M138.1,303.5c1.3-11.9,3.1-23.6,4.4-35.5c0.7-6.9,2.1-13.8,3.2-20.8c1.6-5.1,3.2-10.3,4.9-15.4c3.5,1.2,7.1,2.2,10.8,3
			c16.1,3.6,32.1,4.4,48.5,2c17.3-2.5,32-11.7,48.7-15.6c6.1-1.4,12.1-1.9,18-1.6c-0.7,15.4-1.8,30.8-2.9,46.2
			c-6.7-0.1-13.4,0-20,0.1c-2.4-0.2-4.9-0.4-7.4-0.5c-4.9-0.1-9.7,0.4-14.6,0.5c-6.3,0.1-12.6-1.4-18.8,0.1
			c-8.5,2-13.9,9.4-19.2,15.7c-7.4,8.9-13.2,18.6-18.9,28.6c-5.3,9.2-10.3,18.8-13.9,28.8c-2,5.5-3.6,11.1-5,16.8
			c-1.3,5.3-3.9,11.2-4.2,16.7c-1.1,17,30.9,17.1,41.9,18.3c25.2,2.6,50.6,4.4,75.8,7c0,6.6,0,13.2,0,19.8c0,1.6,0.8,10.4,0.4,11
			c-0.5,0.6-0.7,1.3-0.9,1.9c-11,0-21.9-0.1-33-0.5c-21.9-0.9-45.5-2.6-66.8-8c-9.8-2.5-23.3-6.2-30.1-14.1
			c-6.5-7.6-7.1-20.1-7.3-29.6C131.3,353.8,135.4,328.1,138.1,303.5z M269.5,390.5c-13.4-1.1-26.8-2.4-40.1-3.8
			c-20.4-2.2-41.5-2.5-61.5-7.8c-5.5-1.5-9.2-3.9-7.3-10.4c1.2-4.1,2.2-8.1,3.2-12.2c2.6-11,6.9-21.2,11.9-31.3
			c4.4-9,9.4-18.2,15-26.5c6.3-9.1,15-23.9,26.8-25.5c4.2-0.6,8.5,0.3,12.7,0.3c4.8,0,9.7-0.6,14.6-0.7c0.5,0,1.1,0,1.6,0
			c8.9,0.7,17.7,1.2,26.6,1.6c-2.1,29.2-3.1,58.6-3.5,87.9C269.4,371.6,269.5,381,269.5,390.5z M362.5,454.1
			c-5.6,14-20.8,17.3-34.4,18.5c-25.3,2.3-50.8-1.4-76.1-2.5c-27-1.2-53.7-2.3-80.3-7.6c-5.9-1.2-11.9-2.4-17.6-4.3
			c-7.5-2.5-10.9-5.9-13.8-13c-3.2-8-4.8-16-6.3-24.1c2.2,1.8,4.6,3.5,7.4,4.9c21.1,10.9,44.2,13,67.4,15.5
			c25.2,2.8,50.3,3.6,75.7,3c24.2-0.5,49.7,1,73.4-4.8c3.7-0.9,6.9-2.2,9.8-3.7C366.5,442.1,364.8,448.3,362.5,454.1z M385.3,362.3
			c-0.5,10.4-2.2,20.1-5.4,30c-3.3,10.2-6.7,23.9-16.2,30c-7.6,4.9-17.2,5.4-26,6.3c-11.6,1.2-23.2,1.6-34.9,1.7
			c-6.8,0.1-13.6,0.2-20.4,0.3c1.1-6.2-0.4-15-0.4-19.5c0-3.9-0.1-7.9-0.2-11.8c19.2,1.8,39,2.5,58.1,1.5c6.2-0.3,17.6-0.1,22.1-5.2
			c5.3-6,4.2-17.4,2.7-24.6c-2.2-11.1-6.5-21.8-9-32.8c-2.7-11.9-6.7-23.3-10.5-34.9c-3-9.3-6.1-21.2-12.5-28.9
			c-6.1-7.3-17.7-6.4-26.4-7.1c-7-0.6-14-1-21-1.2c0.8-15,1.5-30.1,2-45.2c7.3,1.4,14.4,3.9,21.3,7c15.3,6.9,31.7,11.3,48.5,12.8
			c6.3,0.6,12.8,0.3,19.2-0.8c2.5,18.9,5.2,37.8,7.3,56.7C385.9,318.7,386.4,340.3,385.3,362.3z M383.5,206.3
			c-0.2-1.3-0.4-2.5-0.6-3.8c3-1.2,5.9-2.6,8.7-4.3c5.8-3.5,11.2-7.4,17.4-10.2c5.4-2.4,10.4-4.2,16.5-4.1c0.6,0,1.2,0,1.9,0
			c2,3.4,3.9,6.8,5.9,10.1c2.2,3.8,4.4,7.5,6.6,11.4c-6.7,0.4-13.7,4-19.2,7.1c-10.9,6.2-21.4,14.1-33.3,18.3
			C386,222.7,384.8,214.5,383.5,206.3z M420.1,348.7c-7-10.9-11-24.4-16-36.3c-3.2-7.7-5.1-15.8-7.3-23.8
			c-1.6-13.4-3.8-26.8-6.3-39.9c-0.7-3.8-1.4-7.6-2.1-11.5c4.2-1.3,8.3-2.9,12.2-4.7c12.2-5.9,27.9-22.7,42.5-20.6
			c0.1,0,0.3,0,0.4,0c4.5,8.2,8.7,16.5,12.5,24.9c6.9,15.3,11.6,31.3,16.7,47.2c5,15.4,9.6,30.6,12.3,46.6c3,18-11.5,30.1-27.6,34.3
			C440.3,369.3,429.1,362.8,420.1,348.7z M499.1,384.1c-1.7,7.3-7.8,10.8-14.1,13.9c-6.6,3.2-15.3,6-22.8,5.6
			c-8.9-0.5-14.1-5-19.3-12c-2.8-3.7-5-8.2-7.4-12.7c1.3,0.4,2.6,0.7,3.9,0.9c14.6,2.4,31.4-2.5,43-11.5c4.6-3.6,8.4-7.8,11.2-12.3
			c1.1,3.1,2.3,6.1,2.9,8.2C498.2,370.7,500.7,377.3,499.1,384.1z"/>
	</g>
</g>
</svg>
