<?xml version="1.0" encoding="iso-8859-1"?>
<!-- Generator: Adobe Illustrator 19.0.0, SVG Export Plug-In . SVG Version: 6.00 Build 0)  -->
<svg version="1.1" id="Capa_1" xmlns="http://www.w3.org/2000/svg" xmlns:xlink="http://www.w3.org/1999/xlink" x="0px" y="0px"
	 viewBox="0 0 512 512" style="enable-background:new 0 0 512 512;" xml:space="preserve">
<g>
	<g>
		<path d="M511.364,373.497c-1.523-7.937-4.582-25.081-12.743-30.688c0.802-4.443,0.82-9.14-0.054-14.041
			c-3.38-18.963-9.628-36.673-15.487-54.955c-12.008-37.47-29.871-70.561-50.647-103.835c-10.51-16.832-21.181-32.134-34.855-46.663
			c-13.312-14.145-27.649-26.284-42.636-38.398c2.424-4.588,4.254-9.582,5.454-14.877c3.438-15.17-2.521-31.757-16.928-38.863
			c-8.35-4.119-18.947-4.14-28.021-5.106c-11.986-1.276-24.242-0.62-36.275-0.338c-9.264,0.217-18.467,0.116-27.725,0.958
			c-3.443,0.313-6.908,0.574-10.362,0.888c-9.218,0.588-18.316,1.85-26.834,4.648c-18.518,6.083-28.41,21.175-30.419,40.299
			c-0.451,4.289-0.145,8.192,0.804,11.731c-6.339,4.228-12.038,10.403-17.34,15.339c-8.284,7.71-16.877,15.087-25.285,22.66
			c-17.965,16.181-34.511,34.718-49.393,53.766c-28.175,36.061-52.17,76.71-66.862,120.176
			c-4.559,13.487-10.927,30.061-8.857,44.892c-5.583,11.642-15.722,22.107-16.846,35.195c-1.068,12.441,14.38,21.099,23.244,26.592
			c10.638,6.594,28.488,16.809,40.112,7.131c5.352-4.456,8.221-10.923,10.696-17.251c1.216-3.11,3.832-7.506,4.804-11.643
			c13.321-5.256,21.996-21.578,28.337-33.202c7.742-14.193,13.899-28.934,19.441-43.977c-3.505,23.507-7.335,47.582-7.921,71.338
			c-0.318,12.909,1.125,25.792,7.16,36.051c-2.239,13.143-0.605,25.844,4.003,38.453c4.446,12.164,12.005,17.083,24.162,20.733
			c31.643,9.5,65.255,10.573,97.981,12.253c30.012,1.541,62.353,7.655,92.064,0.588c12.921-3.073,24.078-9.992,29.575-22.308
			c4.855-10.88,8.297-24.67,7.313-36.642c-0.009-0.112-0.039-0.207-0.053-0.315c5.353-7.479,8.825-16.723,12.088-26.316
			c6.493-19.089,7.634-39.293,7.239-59.36c1.945,4.979,4.063,9.833,6.436,14.371c4.117,7.876,9.809,15.294,16.991,20.445
			c2.101,5.186,3.535,11.038,5.593,15.738c3.462,7.905,8.498,16.753,15.786,21.778c13.929,9.604,33.748,4.682,47.568-2.439
			C506.259,401.302,514.41,389.362,511.364,373.497z M377.636,118.889c10.966,11.158,21.759,23.019,31.089,35.586
			c5.75,7.744,10.901,16.209,15.875,24.709c-6.503,0.24-13.272,2.19-17.673,4.052c-9.052,3.829-16.591,9.234-24.989,12.903
			c-1.398-9.365-3.1-18.865-7.235-27.189c-1.359-2.735-5.965-1.458-5.788,1.568c0.565,9.674,1.411,19.325,2.418,28.963
			c-1.997,0.371-4.069,0.613-6.249,0.679c-18.203,0.556-32.679-9.247-48.437-16.923c-9.245-4.503-19.053-6.95-29.095-7.224
			c-0.538-20.293-2.099-40.5-5.373-60.425c15.855-0.075,32.401-1.226,46.652-6.979c8.605-3.474,15.6-8.894,20.925-15.682
			C358.505,102.067,368.789,109.887,377.636,118.889z M287.669,182.465c10.98,0.384,21.671,3.813,31.714,9.447
			c10.822,6.072,23.701,13.001,36.218,14.217c5.616,0.546,11.082,0.332,16.389-0.588c1.043,9.34,2.219,18.67,3.455,27.994
			c-14.296,1.845-28.747-0.614-42.704-3.834c-12.748-2.941-23.561-10.23-35.982-13.859c-2.877-0.841-6.001-1.492-9.224-1.985
			C287.782,203.394,287.837,192.921,287.669,182.465z M285.129,274.624c8.361,0.139,16.764,0.478,25.1,1.242
			c5.234,0.48,13.099,0.315,16.717,4.481c2.866,3.301,4.367,8.941,6.092,13.042c6.664,15.841,11.542,32.879,15.444,49.567
			c2.151,9.196,5.677,18.092,8.011,27.238c1.257,4.928,2.355,10.775,0.755,15.691c-2.087,6.409-7.983,6.312-14.135,6.846
			c-17.673,1.534-36.263,0.054-53.952-0.901c-2.523-0.136-5.052-0.323-7.578-0.486c-0.186-6.981-0.3-13.959,0.01-20.879
			c1.378-30.662,1.569-61.419,3.144-92.099c0.064-1.247,0.129-2.5,0.194-3.749C284.997,274.62,285.063,274.623,285.129,274.624z
			 M200.896,55.001c5.708-9.327,16.075-12.688,26.371-14.566c17.235-3.143,35.77-2.961,53.246-3.273
			c13.701-0.245,27.783-0.226,41.693,0.474c11.143,1.572,22.197,5.263,25.585,16.331c4.39,14.338-4.984,31.71-16.907,39.328
			c-13.797,8.816-31.981,9.164-47.954,9.615c2.655-10.146,3.187-27.306-1.824-35.138c9.275-0.304,18.519-0.938,27.531-2.013
			c5.717-0.682,29.243-4.637,25.514-15.14c-1.557-4.388-10.43-6.775-14.208-7.761c-8.095-2.114-16.363-2.769-24.692-2.654
			c-16.241,0.224-32.672,1.11-48.856,2.614c-3.565,0.331-7.228,0.789-10.871,1.36c-2.712,0.353-6.251,0.923-9.75,1.832
			c-0.278,0.061-0.566,0.112-0.842,0.174c-4.038,0.907-11.366,1.737-13.064,6.417c-1.695,4.672,0.564,8.002,5.259,10.344
			c4.024,2.358,10.086,3.453,15.938,3.983c8.127,0.975,17.573,1.171,26.607,0.985c4.085,0.078,8.194,0.101,12.311,0.063
			c5.518,6.335,5.044,14.122,4.637,22.413c-0.208,4.223-1.399,8.511-1.303,12.635c-13.368,0.146-26.672-0.408-39.999-1.819
			c-13.529-1.432-39.513-5.214-40.743-22.64C194.023,70.739,196.847,61.616,200.896,55.001z M244.519,61.464
			c-1.585-0.115-7.385-0.135-12.992-0.61c-0.333-0.072-0.671-0.121-1.003-0.197c-1.654-0.381-8.691-2.009-10.946-4.297
			c0.219-1.374,1.78-2.502,4.039-3.426c1.298-0.209,2.506-0.369,3.048-0.471c13.542-2.533,27.292-3.988,41.06-4.432
			c14.798-0.478,29.481-2.535,44.225-0.082c3.651,0.608,7.265,1.251,10.726,2.621c6.689,2.648,1.801,3.896-2.146,5.71
			c-8.242,3.789-18.098,3.742-26.97,4.225C277.316,61.39,260.773,62.646,244.519,61.464z M143.836,134.439
			c8.315-8.1,16.904-15.912,25.298-23.927c6.12-5.843,11.73-13.737,18.306-19.564c4.038,6.915,11.04,12.015,19.855,15.473
			c18.39,7.214,40.391,8.695,59.958,9.025c2.572,0.043,5.192,0.087,7.845,0.116c-0.173,10.188,0.845,20.407,1.422,30.564
			c0.573,10.105,0.817,20.229,0.889,30.353c-1.115,0.131-2.231,0.28-3.349,0.465c-15.745,2.605-29.733,12.432-45.138,16.571
			c-16.156,4.34-39.169,7.71-54.092-0.986c-3.243-1.89-6.32-3.904-9.352-5.929c1.267-3.521,2.554-7.034,3.885-10.524
			c4.891-12.823,11.826-24.985,15.942-38.055c0.611-1.94-2.125-3.634-3.503-2.039c-11.055,12.799-17.437,29.966-23.657,45.744
			c-5.688-3.695-11.537-7.107-18.311-9.479c-7.736-2.708-17.344-5.653-26.174-5.345C123.197,155.55,133.362,144.641,143.836,134.439
			z M277.428,183.017c0,1.918,0.008,3.837-0.002,5.755c-0.042,8.05-0.259,16.09-0.576,24.125c-4.971-0.15-9.887,0.09-14.321,0.796
			c-13.189,2.099-24.773,8.922-37.402,12.84c-22.818,7.078-50.061,8.156-72.557-1.178c1.558-4.907,3.117-9.814,4.706-14.714
			c1.946-5.999,3.955-11.992,6.038-17.958c6.149,4.582,12.453,8.948,20.026,10.512c12.975,2.68,28.254-0.054,41.194-2.295
			c15.662-2.712,29.081-11.402,44.098-15.951C271.573,184.058,274.506,183.433,277.428,183.017z M96.812,188.353
			c3.453-4.723,7.042-9.4,10.742-14.015c13.183-3.906,32.919,3.534,43.643,9.834c1.623,0.954,3.208,2.008,4.777,3.107
			c-4.386,11.105-8.565,22.284-12.523,33.544c-3.702-2.175-7.222-4.681-10.498-7.567c-9.642-8.493-27.093-19.311-41.5-17.435
			C93.222,193.317,95.005,190.824,96.812,188.353z M61.594,392.422c-3.939,8.329-10.069,11.116-18.892,7.657
			c-5.978-2.344-11.86-5.218-17.299-8.635c-4.525-2.844-10.806-6.042-13.469-10.76c-2.713-4.807-0.154-9.816,1.791-14.681
			c1.899-4.748,4.446-9.358,6.515-14.105c0.259,0.506,0.528,1.008,0.818,1.505c8.15,14.001,28.129,26.845,44.695,29.078
			C64.105,385.983,62.862,389.741,61.594,392.422z M114.907,298.624c-7.267,18.674-15.673,37.045-25.777,54.368
			c-5.34,9.157-12.325,18.244-23.986,16.332c-9.705-1.591-21.202-9.194-28.238-15.826c-15.344-14.463-4.877-38.682,0.864-55.737
			c11.519-34.22,29.084-66.232,49.525-95.98c12.432-3.253,25.997,2.986,35.963,10.954c5.777,4.619,10.57,10.233,16.864,14.215
			c0.321,0.203,0.651,0.38,0.975,0.573c-1.561,4.555-3.092,9.121-4.581,13.703C130.2,260.663,122.315,279.587,114.907,298.624z
			 M138.124,303.515c1.331-11.86,3.129-23.611,4.365-35.487c0.714-6.861,2.068-13.821,3.154-20.78
			c1.62-5.124,3.236-10.25,4.855-15.376c3.514,1.233,7.142,2.171,10.846,3.006c16.126,3.633,32.127,4.404,48.537,2.03
			c17.296-2.503,31.958-11.673,48.661-15.582c6.063-1.419,12.078-1.888,18.019-1.613c-0.725,15.41-1.81,30.802-2.932,46.192
			c-6.682-0.08-13.365-0.031-20.041,0.136c-2.417-0.242-4.859-0.417-7.354-0.474c-4.888-0.113-9.732,0.423-14.605,0.483
			c-6.262,0.078-12.567-1.368-18.793,0.081c-8.472,1.97-13.908,9.364-19.164,15.73c-7.365,8.921-13.156,18.633-18.909,28.624
			c-5.296,9.199-10.27,18.773-13.854,28.778c-1.98,5.53-3.596,11.093-4.983,16.796c-1.299,5.341-3.864,11.221-4.216,16.741
			c-1.087,17.041,30.937,17.125,41.935,18.278c25.241,2.644,50.587,4.391,75.827,6.977c-0.007,6.601-0.02,13.202-0.009,19.803
			c0.002,1.608,0.791,10.44,0.366,11.036c-0.454,0.636-0.723,1.264-0.906,1.883c-10.972,0.045-21.943-0.068-32.951-0.531
			c-21.863-0.919-45.524-2.623-66.775-8.021c-9.758-2.479-23.286-6.168-30.058-14.065c-6.522-7.605-7.082-20.099-7.279-29.622
			C131.349,353.758,135.365,328.107,138.124,303.515z M269.467,390.486c-13.397-1.056-26.802-2.375-40.121-3.782
			c-20.42-2.157-41.533-2.517-61.451-7.809c-5.499-1.461-9.224-3.932-7.333-10.387c1.19-4.061,2.178-8.06,3.152-12.18
			c2.6-11,6.925-21.161,11.877-31.275c4.384-8.954,9.37-18.239,15.024-26.466c6.262-9.112,14.962-23.853,26.849-25.535
			c4.199-0.594,8.518,0.33,12.724,0.304c4.846-0.03,9.7-0.569,14.556-0.658c0.548-0.01,1.096-0.004,1.644-0.008
			c8.87,0.682,17.749,1.23,26.642,1.578c-2.099,29.216-3.1,58.599-3.478,87.876C269.431,371.609,269.456,381.036,269.467,390.486z
			 M362.492,454.107c-5.608,14.041-20.775,17.28-34.354,18.5c-25.256,2.27-50.831-1.437-76.064-2.526
			c-27.014-1.166-53.687-2.302-80.292-7.615c-5.882-1.175-11.857-2.396-17.56-4.28c-7.518-2.484-10.908-5.869-13.75-12.965
			c-3.196-7.981-4.814-15.982-6.276-24.134c2.168,1.814,4.588,3.468,7.357,4.892c21.095,10.852,44.229,12.96,67.427,15.493
			c25.223,2.754,50.301,3.59,75.665,3.04c24.183-0.524,49.733,0.95,73.422-4.833c3.651-0.891,6.865-2.176,9.758-3.749
			C366.547,442.133,364.824,448.269,362.492,454.107z M385.326,362.297c-0.506,10.402-2.198,20.09-5.421,30.009
			c-3.313,10.197-6.676,23.854-16.227,29.978c-7.632,4.893-17.246,5.388-26.049,6.321c-11.588,1.229-23.206,1.556-34.85,1.736
			c-6.817,0.106-13.618,0.221-20.416,0.309c1.077-6.184-0.352-14.987-0.357-19.538c-0.004-3.935-0.094-7.886-0.202-11.842
			c19.216,1.766,39.03,2.517,58.141,1.548c6.226-0.316,17.592-0.099,22.106-5.155c5.34-5.981,4.183-17.404,2.749-24.581
			c-2.214-11.076-6.467-21.768-9.02-32.779c-2.748-11.854-6.725-23.3-10.512-34.856c-3.043-9.285-6.145-21.217-12.469-28.883
			c-6.052-7.338-17.678-6.404-26.409-7.144c-6.983-0.592-13.996-0.988-21.022-1.242c0.774-14.97,1.522-30.053,1.98-45.168
			c7.259,1.419,14.372,3.852,21.281,6.973c15.298,6.91,31.749,11.288,48.531,12.805c6.29,0.568,12.767,0.25,19.156-0.753
			c2.545,18.909,5.214,37.805,7.252,56.747C385.922,318.664,386.395,340.323,385.326,362.297z M383.465,206.349
			c-0.202-1.261-0.392-2.54-0.581-3.822c2.956-1.165,5.851-2.589,8.672-4.296c5.806-3.513,11.171-7.396,17.403-10.179
			c5.435-2.427,10.443-4.223,16.483-4.129c0.56,0.009,1.232,0.022,1.941,0.041c1.963,3.385,3.91,6.755,5.867,10.068
			c2.22,3.757,4.414,7.546,6.57,11.361c-6.714,0.362-13.654,3.96-19.214,7.122c-10.908,6.204-21.355,14.125-33.294,18.287
			C385.999,222.658,384.772,214.502,383.465,206.349z M420.064,348.703c-6.957-10.87-10.988-24.432-16.019-36.313
			c-3.242-7.656-5.088-15.805-7.314-23.797c-1.633-13.421-3.765-26.787-6.297-39.889c-0.736-3.811-1.414-7.628-2.063-11.451
			c4.21-1.294,8.307-2.859,12.169-4.736c12.169-5.914,27.851-22.677,42.487-20.603c0.146,0.021,0.283,0.016,0.423,0.02
			c4.464,8.173,8.701,16.477,12.512,24.928c6.907,15.312,11.554,31.264,16.717,47.193c4.988,15.387,9.637,30.625,12.311,46.61
			c3.012,17.999-11.499,30.095-27.639,34.263C440.341,369.321,429.09,362.807,420.064,348.703z M499.104,384.099
			c-1.683,7.253-7.778,10.839-14.086,13.912c-6.608,3.22-15.337,6.029-22.806,5.61c-8.917-0.501-14.07-5.016-19.291-11.957
			c-2.774-3.687-5.038-8.224-7.44-12.703c1.271,0.359,2.561,0.674,3.895,0.889c14.577,2.354,31.422-2.477,42.974-11.543
			c4.602-3.612,8.381-7.755,11.194-12.333c1.077,3.117,2.269,6.055,2.86,8.212C498.175,370.653,500.681,377.306,499.104,384.099z"/>
	</g>
</g>
<g>
</g>
<g>
</g>
<g>
</g>
<g>
</g>
<g>
</g>
<g>
</g>
<g>
</g>
<g>
</g>
<g>
</g>
<g>
</g>
<g>
</g>
<g>
</g>
<g>
</g>
<g>
</g>
<g>
</g>
</svg>
